<?xml version="1.0" standalone="no"?><!DOCTYPE svg PUBLIC "-//W3C//DTD SVG 1.1//EN" "http://www.w3.org/Graphics/SVG/1.1/DTD/svg11.dtd"><svg t="1512212766614" class="icon" style="" viewBox="0 0 1024 1024" version="1.1" xmlns="http://www.w3.org/2000/svg" p-id="2418" data-spm-anchor-id="a313x.7781069.0.i0." xmlns:xlink="http://www.w3.org/1999/xlink" width="200" height="200"><defs><style type="text/css"></style></defs><path d="M805.4 435.2c-4.2-11-15-14.4-20.9-16.2l-2-0.6c-2.7-0.9-5.6-1.4-8.7-1.4-1.2 0-2.4 0.1-4.4 0.2H592l85.8-273.3 0.7-2c6-17.3 2.6-30.1-10.2-37.9-4.8-3-9.9-4.5-15.1-4.5-12.9 0-20.6 8.9-24.8 13.7l-1.4 1.5c-56.2 61.4-112.4 122.9-168.6 184.4l-96.8 105.8c-40.3 44-80.6 88-120.6 132.2-6.8 7.5-11.7 21.1-7.8 32.4 4 11.6 15.3 15 22.1 17l2.1 0.6c2.7 0.9 5.6 1.3 8.7 1.3 1.3 0 2.5-0.1 5-0.2h162.7l-65.2 253.7c-3.9 15.1-8.3 32.3-11.7 49.4-2.4 11.6 4.7 24.1 13 29.4 3.8 2.4 8.3 3.7 13.2 3.7 4.1 0 8.8-0.9 13.7-2.7 6.9-2.4 10.7-7.4 13.3-10.8l344-392c15.1-17.2 30.2-34.3 44.9-51.7 6.3-7.6 10.5-20.9 6.4-32z m-79.7 58.7L402.5 862.3c1-3.8 1.9-7.5 2.8-11l65.2-253.9c4.2-16.3-0.2-26.9-4.6-33-6.1-8.3-15.9-13.2-28.8-13.9H279.9c36.4-40.1 73-80.1 109.6-120.1l96.8-105.8c48.3-52.9 96.7-105.7 145-158.6l-78.1 248.7c-0.2 0.5-0.3 1-0.4 1.5-2.3 10.3-0.4 19.9 5.4 27.1 4.3 5.3 12.6 11.6 27.9 11.6h173.6c-11.2 13.1-22.6 26.1-34 39z" p-id="2419" fill="#0645ad"></path></svg>